<?xml version="1.0" encoding="utf-8"?>
<!-- Generator: Adobe Illustrator 27.5.0, SVG Export Plug-In . SVG Version: 6.00 Build 0)  -->
<svg version="1.1" xmlns="http://www.w3.org/2000/svg" xmlns:xlink="http://www.w3.org/1999/xlink" x="0px" y="0px"
	 viewBox="0 0 3710 3710" style="enable-background:new 0 0 3710 3710;" xml:space="preserve">
<g id="Background">
	<g>
		<g>
			<rect style="fill:#FFFFFF;" width="3710" height="3710"/>
		</g>
	</g>
</g>
<g id="Illustration">
	<g>
		<path style="fill:#F4F7FA;" d="M2582.256,623.292c94.086,135.185-16.232,354.351,123.375,456.02
			c135.897,98.968,302.842-63.253,430.916,21.938c189.991,126.376,155.295,704.648-122.482,1063.94
			c-83.537,108.052-153.336,150.093-184.251,272.294c-66.382,262.397,166.917,418.487,122.52,548.264
			c-99.964,292.211-1637.344,537.41-2254.21-340.78c-288.101-410.151-331.207-1002.412-73.798-1452.238
			C1089.462,379.902,2371.144,319.963,2582.256,623.292z"/>
		<g>
			
				<linearGradient id="SVGID_1_" gradientUnits="userSpaceOnUse" x1="2385.8494" y1="51.5651" x2="3387.4829" y2="51.5651" gradientTransform="matrix(-0.7604 0.6494 0.6494 0.7604 4479.1123 -666.3207)">
				<stop  offset="0.0036" style="stop-color:#E38DDD"/>
				<stop  offset="1" style="stop-color:#9571F6"/>
			</linearGradient>
			<path style="fill:url(#SVGID_1_);" d="M2511.27,1939.579c-38.309,15.014-102.802,40.289-178.405,22.26
				c-137.45-32.778-222.4-187.412-243.003-312.222c-17.698-107.206,20.351-216.024,96.445-433.662
				c71.665-204.973,112.467-254.294,80.681-319.722c-45.314-93.275-174.089-87.409-210.637-204.149
				c-4.385-14.009-19.449-62.122,3.299-102.707c38.94-69.474,161.348-68.125,231.519-51.211
				c67.684,16.315,166.181,66.255,189.222,151.393c16.694,61.685-20.402,89.443,5.424,137.896
				c25.985,48.749,71.375,35.352,142.825,92.882c28.544,22.983,85.84,69.117,99.352,137.132
				c17.471,87.945-54.075,132.861-24.887,194.396c21.089,44.46,65.337,35.547,99.09,79.64
				c44.435,58.047,21.89,144.222,2.171,215.683C2781.146,1631.337,2718.5,1858.361,2511.27,1939.579z"/>
			<path style="opacity:0.16;fill:#FFFFFF;" d="M2101.014,596.225c-12.72,47.051,155.559,67.509,235.798,213.728
				c86.333,157.326,18.076,364.264-13.468,459.897c-53.818,163.165-113.766,188.552-120.335,326.962
				c-2.6,54.78-8.016,168.904,73.51,252.431c7.574,7.761,93.311,93.019,201.074,76.896
				c122.234-18.288,179.87-153.107,229.534-269.274c30.009-70.194,89.958-210.416,33.798-261.939
				c-34.331-31.497-104.145-22.595-148.486,0.28c-63.289,32.647-83.355,98.226-95.923,93.02
				c-11.32-4.689-5.929-62.405,17.98-121.905c47.825-119.011,120.846-123.482,149.07-220.535
				c3.422-11.763,29.175-105.367-23.676-170.684c-30.481-37.671-87.904-66.912-124.227-49.292
				c-41.082,19.928-37.445,91.196-51.429,90.536c-13.372-0.631-24.821-66.175-26.674-132.606
				c-2.723-97.61,17.538-115.801,3.6-167.337c-21.265-78.628-91.24-120.623-101.385-126.516
				C2244.707,534.668,2111.889,555.998,2101.014,596.225z"/>
		</g>
		<g>
			
				<linearGradient id="SVGID_00000121258769165691096890000017142972987191418789_" gradientUnits="userSpaceOnUse" x1="1375.6859" y1="614.4738" x2="2377.3005" y2="614.4738" gradientTransform="matrix(-0.9996 0.0279 0.0279 0.9996 4473.3232 751.8994)">
				<stop  offset="0" style="stop-color:#FF9085"/>
				<stop  offset="1" style="stop-color:#FB6FBB"/>
			</linearGradient>
			<path style="fill:url(#SVGID_00000121258769165691096890000017142972987191418789_);" d="M2330.86,2078.727
				c-39.242-12.372-105.305-33.2-152.822-94.707c-86.386-111.823-55.394-285.511,6.947-395.582
				c53.548-94.546,151.493-155.34,347.381-276.932c184.488-114.516,247.214-127.278,263.562-198.157
				c23.307-101.047-80.595-177.347-35.73-291.15c5.384-13.656,23.875-60.56,67.063-77.86
				c73.931-29.615,168.348,48.302,212.336,105.53c42.43,55.2,87.725,155.917,52.193,236.645
				c-25.743,58.489-72.045,56.797-82.372,110.723c-10.39,54.256,33.348,72.333,52.826,161.973
				c7.782,35.811,23.402,107.694-8.793,169.112c-41.629,79.414-125.515,69.442-141.441,135.66
				c-11.508,47.844,28.525,68.693,27.105,124.204c-1.87,73.078-73.529,125.986-133.75,169.217
				C2734.453,2008.31,2543.138,2145.652,2330.86,2078.727z"/>
			<path style="opacity:0.16;fill:#FFFFFF;" d="M2855.154,775.643c-39.445,28.629,78.67,150.223,49.296,314.405
				c-31.606,176.651-214.676,294.838-299.279,349.455c-144.345,93.187-206.941,75.3-298.969,178.891
				c-36.423,40.999-112.303,126.414-101.308,242.615c1.021,10.796,14.206,130.987,108.198,186.11
				c106.612,62.526,236.128-6.204,347.727-65.423c67.434-35.784,202.142-107.266,190.791-182.63
				c-6.939-46.07-66.862-82.983-115.734-93.026c-69.755-14.336-126.553,24.1-133.065,12.156
				c-5.865-10.757,34.574-52.289,90.545-83.581c111.954-62.588,171.589-20.213,254.5-78.021
				c10.05-7.006,88.872-63.681,88.757-147.701c-0.066-48.459-26.392-107.274-65.725-116.371
				c-44.486-10.289-86.409,47.459-96.878,38.164c-10.01-8.888,22.239-67.086,62.512-119.95
				c59.176-77.675,86.367-79.108,107.883-127.968c32.826-74.545,4.74-151.169,0.545-162.126
				C3005.637,817.971,2888.878,751.166,2855.154,775.643z"/>
		</g>
		<g>
			
				<linearGradient id="SVGID_00000041290887798946716670000012231653556210377886_" gradientUnits="userSpaceOnUse" x1="5481.0464" y1="1305.2882" x2="4132.354" y2="3583.0801" gradientTransform="matrix(1 0 0 1 -3022.4941 0)">
				<stop  offset="0" style="stop-color:#FFC444"/>
				<stop  offset="0.3138" style="stop-color:#FBA94A"/>
				<stop  offset="0.9964" style="stop-color:#F36F56"/>
			</linearGradient>
			<polygon style="fill:url(#SVGID_00000041290887798946716670000012231653556210377886_);" points="2765.409,3064.721 
				1140.166,3156.048 1140.166,1254.216 2765.409,1345.544 			"/>
			
				<linearGradient id="SVGID_00000156573706531179964780000014407373011952975272_" gradientUnits="userSpaceOnUse" x1="4343.0659" y1="1469.0072" x2="3313.4763" y2="3207.8694" gradientTransform="matrix(1 0 0 1 -3022.4941 0)">
				<stop  offset="0" style="stop-color:#FFC444"/>
				<stop  offset="0.3138" style="stop-color:#FBA94A"/>
				<stop  offset="0.9964" style="stop-color:#F36F56"/>
			</linearGradient>
			<polygon style="fill:url(#SVGID_00000156573706531179964780000014407373011952975272_);" points="1140.166,3156.048 
				557.362,3025.9 557.362,1375.628 1140.166,1254.216 			"/>
			<polygon style="fill:#FFFFFF;" points="1661.146,1286.547 1661.146,1583.887 2096.217,1605.977 2096.217,1317.147 			"/>
			<polygon style="fill:#FFFFFF;" points="682.065,1349.649 926.179,1298.795 926.179,1591.634 682.065,1622.411 			"/>
		</g>
		<g>
			<g>
				
					<linearGradient id="SVGID_00000129912480861825752900000003822467883219928716_" gradientUnits="userSpaceOnUse" x1="1535.2621" y1="796.5312" x2="1992.0854" y2="1973.1954">
					<stop  offset="0" style="stop-color:#AA80F9"/>
					<stop  offset="0.9964" style="stop-color:#6165D7"/>
				</linearGradient>
				<path style="fill:url(#SVGID_00000129912480861825752900000003822467883219928716_);" d="M2047.395,961.217
					c0,193.837-271.555,547.546-394.448,697.694c-30.582,37.364-87.75,37.364-118.332,0
					c-122.893-150.148-394.448-503.857-394.448-697.694c0-250.524,203.09-453.614,453.615-453.614
					C1844.305,507.603,2047.395,710.693,2047.395,961.217z"/>
				
					<ellipse transform="matrix(0.7071 -0.7071 0.7071 0.7071 -212.8755 1408.5072)" style="fill:#FFFFFF;" cx="1593.781" cy="961.217" rx="252.987" ry="252.987"/>
				<g style="opacity:0.3;">
					
						<linearGradient id="SVGID_00000132801631846605836040000008236086153783419291_" gradientUnits="userSpaceOnUse" x1="1371.6899" y1="860.0351" x2="1828.5142" y2="2036.7017">
						<stop  offset="0" style="stop-color:#AA80F9"/>
						<stop  offset="0.9964" style="stop-color:#6165D7"/>
					</linearGradient>
					<path style="fill:url(#SVGID_00000132801631846605836040000008236086153783419291_);" d="M1591.777,1472.664
						c28.78-189.526,153.934-250.19,132.453-429.149c-24.775-206.387-207.516-261.357-211.925-445.043
						c-0.71-29.573,3.313-58.089,10.901-85.396c-217.004,33.902-383.04,221.624-383.04,448.141
						c0,193.836,271.555,547.546,394.448,697.694c18,21.993,45.21,31.025,70.79,27.128
						C1583.411,1603.026,1582.745,1532.139,1591.777,1472.664z"/>
				</g>
			</g>
		</g>
		<g>
			<g>
				<g>
					<g>
						
							<linearGradient id="SVGID_00000171683317654399821510000014724472564105668275_" gradientUnits="userSpaceOnUse" x1="1395.7478" y1="2458.158" x2="2321.8601" y2="2458.158" gradientTransform="matrix(0.9993 0.0372 -0.0372 0.9993 -147.3405 -31.9133)">
							<stop  offset="0" style="stop-color:#444B8C"/>
							<stop  offset="0.9964" style="stop-color:#26264F"/>
						</linearGradient>
						<path style="fill:url(#SVGID_00000171683317654399821510000014724472564105668275_);" d="M1934.927,1769.459l122.593,1375.642
							c1.856,20.828-12.609,39.349-32.179,41.154l-663.277,68.316c-39.683,2.112-60.682-19.411-62.464-41.046l-117.661-1428.264
							c-1.737-21.086,17.971-40.96,57.177-42.403l657.192-9.66C1915.753,1732.826,1933.116,1749.141,1934.927,1769.459z"/>
						
							<linearGradient id="SVGID_00000019671326519084440700000002779691391960848540_" gradientUnits="userSpaceOnUse" x1="1797.1566" y1="2680.1311" x2="1925.0974" y2="2324.9856" gradientTransform="matrix(0.9993 0.0372 -0.0372 0.9993 -147.3405 -31.9133)">
							<stop  offset="0" style="stop-color:#444B8C"/>
							<stop  offset="0.9964" style="stop-color:#26264F"/>
						</linearGradient>
						<path style="fill:url(#SVGID_00000019671326519084440700000002779691391960848540_);" d="M1965.055,1766.046l123.703,1383.876
							c1.873,20.955-12.668,39.588-32.349,41.405l-688.232,63.515c-21.101,1.947-39.87-14.273-41.669-36.04l-118.706-1436.887
							c-1.752-21.212,13.983-38.889,34.929-39.289l683.477-13.057C1945.762,1729.195,1963.228,1745.607,1965.055,1766.046z"/>
					</g>
					
						<linearGradient id="SVGID_00000098193751211465853660000010993321322206719361_" gradientUnits="userSpaceOnUse" x1="1826.8087" y1="1690.9755" x2="1040.6104" y2="3820.2622" gradientTransform="matrix(0.9993 0.0372 -0.0372 0.9993 -147.3405 -31.9133)">
						<stop  offset="0" style="stop-color:#FFC444"/>
						<stop  offset="0.9964" style="stop-color:#F36F56"/>
					</linearGradient>
					<path style="fill:url(#SVGID_00000098193751211465853660000010993321322206719361_);" d="M1606.482,1777.745
						c0.622,7.214-4.556,13.187-11.568,13.34c-7.018,0.153-13.214-5.58-13.834-12.802c-0.621-7.223,4.568-13.194,11.584-13.338
						C1599.676,1764.802,1605.861,1770.532,1606.482,1777.745z"/>
				</g>
				<g>
					<defs>
						<path id="SVGID_00000162317578351023986740000017454893343597752758_" d="M1909.777,1803.452l-637.549,14.06
							c-16.587,0.366-28.84,14.261-27.341,31.033L1365.058,3193c1.48,16.555,15.969,28.677,32.334,27.081l629.206-61.367
							c15.252-1.488,26.486-15.621,25.113-31.571l-111.459-1295.061C1938.862,1815.93,1925.228,1803.111,1909.777,1803.452z"/>
					</defs>
					<clipPath id="SVGID_00000052792142072388902110000007230591152402221229_">
						<use xlink:href="#SVGID_00000162317578351023986740000017454893343597752758_"  style="overflow:visible;"/>
					</clipPath>
					<polygon style="clip-path:url(#SVGID_00000052792142072388902110000007230591152402221229_);fill:#FFFFFF;" points="
						1973.615,2219.724 1280.864,2251.038 1262.728,2048.143 1956.796,2024.308 					"/>
					<g style="clip-path:url(#SVGID_00000052792142072388902110000007230591152402221229_);">
						<polygon style="fill:#D8DEE8;" points="2054.686,3161.712 1368.266,3228.879 1271.521,2146.511 1964.949,2119.048 						"/>
						
							<linearGradient id="SVGID_00000076583892991444140860000011361956401598995349_" gradientUnits="userSpaceOnUse" x1="1205.785" y1="1466.163" x2="1827.3915" y2="2573.4404" gradientTransform="matrix(1 0 0.0902 0.9985 -49.2091 1.1571)">
							<stop  offset="0" style="stop-color:#FF9085"/>
							<stop  offset="1" style="stop-color:#FB6FBB"/>
						</linearGradient>
						<polygon style="fill:url(#SVGID_00000076583892991444140860000011361956401598995349_);" points="1962.262,2087.826 
							1268.624,2114.094 1239.689,1790.379 1935.431,1776.067 						"/>
						<g>
							<polygon style="fill:#FFFFFF;" points="1879.829,1938.07 1629.751,1945.432 1627.528,1920.048 1877.665,1913.03 							"/>
							<polygon style="fill:#FFFFFF;" points="1883.964,1985.927 1634.001,1993.948 1631.778,1968.575 1881.801,1960.899 							"/>
							<g>
								<path style="fill:#FFFFFF;" d="M1565.158,1884.772l-203.594,5.304c-7.719,0.201-13.427,6.847-12.719,14.812l10.848,122.008
									c0.708,7.956,7.559,14.215,15.267,13.952l203.303-6.944c7.535-0.257,13.098-6.859,12.408-14.717l-10.581-120.501
									C1579.399,1890.818,1572.703,1884.576,1565.158,1884.772z M1551.302,1899.751l-76.421,61.819
									c-2.427,1.963-5.899,2.042-8.637,0.198l-85.294-57.445L1551.302,1899.751z M1374.172,2026.117l-10.318-116.135
									l94.946,63.858c4.084,2.746,8.718,4.041,13.226,3.902c4.404-0.136,8.689-1.643,12.221-4.503l82.316-66.673l9.913,112.802
									L1374.172,2026.117z"/>
							</g>
						</g>
						<g>
							<defs>
								<polygon id="SVGID_00000169536849559931370870000005343976420025243825_" points="2054.686,3161.712 1368.266,3228.879 
									1271.521,2146.511 1964.949,2119.048 								"/>
							</defs>
							<clipPath id="SVGID_00000047743121877149820320000006990873842008213428_">
								<use xlink:href="#SVGID_00000169536849559931370870000005343976420025243825_"  style="overflow:visible;"/>
							</clipPath>
							<g style="clip-path:url(#SVGID_00000047743121877149820320000006990873842008213428_);">
								<path style="fill:#FFFFFF;" d="M2094.816,3232.842c-9.376,0-18.576-4.542-24.162-12.932l-302.939-455.166l-293.13,21.389
									l-183.905,379.782c-6.98,14.409-24.316,20.433-38.729,13.458c-14.411-6.978-20.436-24.318-13.458-38.729l191.199-394.844
									c4.513-9.32,13.656-15.525,23.983-16.279l326.691-23.837c10.462-0.751,20.454,4.152,26.245,12.852l312.312,469.249
									c8.87,13.328,5.256,31.326-8.071,40.198C2105.914,3231.269,2100.335,3232.842,2094.816,3232.842z"/>
								<path style="fill:#FFFFFF;" d="M1675.629,3266.515c-14.865,0-27.521-11.366-28.846-26.455l-42.742-486.188l-344.804-657.382
									c-7.438-14.179-1.972-31.702,12.207-39.14c14.182-7.438,31.704-1.97,39.14,12.208l347.502,662.525
									c1.78,3.394,2.871,7.11,3.206,10.927l43.25,491.975c1.402,15.949-10.39,30.015-26.34,31.418
									C1677.339,3266.479,1676.48,3266.515,1675.629,3266.515z"/>
								<path style="fill:#FFFFFF;" d="M1655.209,3025.597c-10.499,0-19.435-8.034-20.365-18.689
									c-0.981-11.258,7.351-21.182,18.611-22.165l210.869-18.386l-73.927-851.729c-0.978-11.261,7.358-21.181,18.617-22.158
									c11.273-0.954,21.181,7.358,22.158,18.617l75.696,872.11c0.976,11.258-7.354,21.176-18.609,22.158l-231.25,20.163
									C1656.407,3025.571,1655.804,3025.597,1655.209,3025.597z"/>
								<path style="fill:#FFFFFF;" d="M2032.91,2806.043c-3.058,0-6.115-1.167-8.447-3.502l-385.922-386.51
									c-19.59,6.358-77.418,25.052-135.055,42.957c-41.477,12.885-74.763,22.851-98.936,29.624
									c-15.267,4.278-26.338,7.236-34.532,9c14.682,40.989,63.233,168.675,96.916,256.553c2.36,6.155-0.718,13.058-6.875,15.418
									c-6.162,2.361-13.06-0.719-15.418-6.875c-0.26-0.675-26.197-68.353-51.572-135.285
									c-14.909-39.325-26.711-70.706-35.08-93.272c-4.983-13.437-8.795-23.874-11.33-31.023
									c-4.9-13.821-7.598-21.435,1.787-26.456c2.746-1.471,5.874-1.727,8.74-0.949c22.619-2.287,182.981-52.7,280.926-84.655
									c4.28-1.394,8.973-0.267,12.149,2.913l391.097,391.691c4.66,4.667,4.653,12.224-0.013,16.882
									C2039.015,2804.879,2035.961,2806.043,2032.91,2806.043z M1363.547,2479.868c0.147,0.183,0.288,0.37,0.425,0.563
									C1363.833,2480.235,1363.69,2480.048,1363.547,2479.868z"/>
								<path style="fill:#FFFFFF;" d="M1641.8,2414.352c-6.122,0-11.333-4.682-11.879-10.895l-31.076-354.253
									c-0.576-6.567,4.282-12.359,10.85-12.935c6.572-0.555,12.359,4.282,12.935,10.85l31.076,354.253
									c0.576,6.567-4.282,12.359-10.85,12.935C1642.501,2414.337,1642.15,2414.352,1641.8,2414.352z"/>
							</g>
							
								<linearGradient id="SVGID_00000175313967596393151260000010528312477386905273_" gradientUnits="userSpaceOnUse" x1="1234.8827" y1="1970.0898" x2="1714.902" y2="3206.5012" gradientTransform="matrix(1 0 0.0902 0.9985 -49.2091 1.1571)">
								<stop  offset="0" style="stop-color:#AA80F9"/>
								<stop  offset="0.9964" style="stop-color:#6165D7"/>
							</linearGradient>
							
								<path style="clip-path:url(#SVGID_00000047743121877149820320000006990873842008213428_);fill:url(#SVGID_00000175313967596393151260000010528312477386905273_);" d="
								M2060.838,3159.638c-2.751,0-5.452-1.331-7.094-3.79l-30.324-45.372c-2.618-3.916-1.565-9.211,2.352-11.828
								c3.907-2.615,9.21-1.564,11.824,2.352l30.323,45.372c2.618,3.916,1.565,9.211-2.352,11.828
								C2064.116,3159.172,2062.467,3159.638,2060.838,3159.638z M2000.195,3068.894c-2.751,0-5.453-1.331-7.095-3.79
								l-30.323-45.372c-2.618-3.915-1.566-9.211,2.351-11.828c3.907-2.615,9.21-1.566,11.824,2.352l30.324,45.372
								c2.618,3.915,1.566,9.211-2.352,11.827C2003.472,3068.428,2001.823,3068.894,2000.195,3068.894z M1939.548,2978.15
								c-2.751,0-5.453-1.331-7.095-3.79l-30.32-45.372c-2.618-3.915-1.565-9.211,2.352-11.828
								c3.914-2.615,9.206-1.565,11.828,2.352l30.32,45.372c2.615,3.915,1.562,9.211-2.355,11.828
								C1942.822,2977.684,1941.176,2978.15,1939.548,2978.15z M1878.904,2887.406c-2.751,0-5.453-1.331-7.095-3.791l-30.323-45.374
								c-2.616-3.915-1.564-9.211,2.351-11.828c3.919-2.618,9.211-1.562,11.828,2.352l30.32,45.374
								c2.618,3.915,1.565,9.211-2.352,11.828C1882.178,2886.94,1880.533,2887.406,1878.904,2887.406z M1818.262,2796.66
								c-2.753,0-5.454-1.331-7.098-3.791l-30.322-45.372c-2.616-3.915-1.564-9.211,2.351-11.828
								c3.92-2.616,9.213-1.56,11.828,2.352l30.322,45.372c2.616,3.915,1.564,9.211-2.352,11.828
								C1821.536,2796.194,1819.889,2796.66,1818.262,2796.66z M1630.823,2751.035c-3.068,0-6.034-1.662-7.558-4.568l-25.349-48.327
								c-2.188-4.17-0.579-9.324,3.591-11.511c4.165-2.187,9.323-0.581,11.511,3.591l25.349,48.327
								c2.188,4.17,0.58,9.324-3.591,11.511C1633.513,2750.72,1632.159,2751.035,1630.823,2751.035z M1683.405,2750.354
								c-4.428,0-8.169-3.421-8.495-7.906c-0.343-4.698,3.186-8.783,7.882-9.125l54.429-3.97c4.648-0.371,8.78,3.188,9.123,7.882
								c0.343,4.698-3.186,8.783-7.884,9.125l-54.425,3.97C1683.823,2750.347,1683.613,2750.354,1683.405,2750.354z
								 M1580.127,2654.38c-3.068,0-6.034-1.662-7.558-4.568l-25.349-48.326c-2.188-4.17-0.58-9.324,3.591-11.511
								c4.163-2.19,9.321-0.583,11.511,3.591l25.349,48.327c2.188,4.17,0.58,9.324-3.591,11.511
								C1582.816,2654.065,1581.462,2654.38,1580.127,2654.38z M1529.43,2557.726c-3.068,0-6.034-1.662-7.558-4.568l-25.349-48.326
								c-2.188-4.17-0.579-9.325,3.591-11.511c4.167-2.188,9.323-0.583,11.511,3.591l25.349,48.326
								c2.188,4.17,0.579,9.324-3.591,11.511C1532.12,2557.411,1530.766,2557.726,1529.43,2557.726z M1478.732,2461.071
								c-3.068,0-6.034-1.662-7.558-4.568l-25.347-48.326c-2.188-4.17-0.579-9.325,3.591-11.511
								c4.167-2.188,9.323-0.581,11.511,3.591l25.347,48.326c2.188,4.17,0.579,9.324-3.591,11.511
								C1481.422,2460.756,1480.068,2461.071,1478.732,2461.071z M1428.036,2364.417c-3.069,0-6.034-1.662-7.558-4.568
								l-25.347-48.328c-2.188-4.17-0.58-9.324,3.591-11.511c4.167-2.188,9.323-0.583,11.511,3.591l25.347,48.328
								c2.188,4.17,0.58,9.325-3.591,11.511C1430.726,2364.102,1429.372,2364.417,1428.036,2364.417z M1377.34,2267.762
								c-3.069,0-6.034-1.662-7.557-4.568l-25.347-48.328c-2.188-4.17-0.579-9.324,3.591-11.511
								c4.168-2.192,9.323-0.58,11.511,3.591l25.347,48.328c2.188,4.17,0.579,9.324-3.591,11.511
								C1380.029,2267.447,1378.675,2267.762,1377.34,2267.762z M1326.643,2171.107c-3.068,0-6.034-1.662-7.558-4.568
								l-10.141-19.332l-3.7-35.833c-0.483-4.685,2.921-8.873,7.606-9.358c4.691-0.488,8.873,2.921,9.358,7.606l3.364,32.569
								l8.615,16.427c2.188,4.17,0.579,9.324-3.591,11.511C1329.333,2170.792,1327.979,2171.107,1326.643,2171.107z
								 M1308.109,2064.743c-4.317,0-8.019-3.264-8.472-7.651l-5.606-54.284c-0.483-4.685,2.921-8.873,7.606-9.358
								c4.668-0.49,8.873,2.921,9.358,7.606l5.606,54.284c0.483,4.685-2.921,8.873-7.606,9.358
								C1308.697,2064.728,1308.402,2064.743,1308.109,2064.743z"/>
						</g>
					</g>
				</g>
				
					<linearGradient id="SVGID_00000029044775336757299200000003715935540555478407_" gradientUnits="userSpaceOnUse" x1="1353.63" y1="2703.4631" x2="384.982" y2="4422.4731">
					<stop  offset="0" style="stop-color:#FFC444"/>
					<stop  offset="0.3138" style="stop-color:#FBA94A"/>
					<stop  offset="0.9964" style="stop-color:#F36F56"/>
				</linearGradient>
				
					<circle style="fill:url(#SVGID_00000029044775336757299200000003715935540555478407_);" cx="1488.394" cy="2464.304" r="47.53"/>
			</g>
			<g style="opacity:0.48;">
				<path style="fill:#FFFFFF;" d="M1799.69,2716.051c-66.721-233.111-261.251-209.801-319.427-420.443
					c-47.78-173,62.391-264.198-4.438-409.035c-31.431-68.119-86.494-114.179-143.595-145.656l-89.499,1.71
					c-20.947,0.401-36.681,18.077-34.93,39.289l118.706,1436.887c1.799,21.767,20.569,37.987,41.67,36.04l564.287-52.077
					c-36.081-45.772-70.317-101.791-94.078-169.077C1788.09,2891.26,1836.585,2844.96,1799.69,2716.051z"/>
			</g>
		</g>
		<g>
			
				<linearGradient id="SVGID_00000148649318742605917780000015936983957658163339_" gradientUnits="userSpaceOnUse" x1="952.5511" y1="2477.2852" x2="1363.0175" y2="2477.2852" gradientTransform="matrix(-1 0 0 1 3886.2832 0)">
				<stop  offset="0" style="stop-color:#444B8C"/>
				<stop  offset="0.9964" style="stop-color:#3E4177"/>
			</linearGradient>
			<path style="fill:url(#SVGID_00000148649318742605917780000015936983957658163339_);" d="M2583.273,2139.368
				c75.696-36.968,223.34,96.932,295.19,225.187c28.634,51.109,62.25,111.114,54.001,182.45
				c-14.622,126.47-154.916,237.406-348.018,274.441c-5.435-19.416-10.872-38.831-16.309-58.245
				c21.115-21.989,52.688-53.737,93.041-90.111c61.985-55.874,74.722-59.599,77.694-77.239
				c9.738-57.781-138.851-106.151-191.703-207.745C2501.73,2300.757,2525.122,2167.767,2583.273,2139.368z"/>
			
				<linearGradient id="SVGID_00000141433522425902274540000016512282518130572201_" gradientUnits="userSpaceOnUse" x1="1058.3281" y1="3186.6814" x2="1211.5337" y2="3186.6814" gradientTransform="matrix(-1 0 0 1 3886.2832 0)">
				<stop  offset="0" style="stop-color:#311944"/>
				<stop  offset="1" style="stop-color:#6B3976"/>
			</linearGradient>
			<path style="fill:url(#SVGID_00000141433522425902274540000016512282518130572201_);" d="M2682.72,3155.85
				c0,0-12.427,30.659-6.247,42.665c6.18,12.005,36.001,4.414,78.047,10.84c42.047,6.427,71.059,16.256,73.389,7.545
				c2.33-8.71-84.803-54.694-91.766-61.05C2729.178,3149.493,2682.72,3155.85,2682.72,3155.85z"/>
			
				<linearGradient id="SVGID_00000021800183797700724120000011489910770516654499_" gradientUnits="userSpaceOnUse" x1="1232.6428" y1="2918.2107" x2="1179.0575" y2="3253.7002" gradientTransform="matrix(-1 0 0 1 3886.2832 0)">
				<stop  offset="0" style="stop-color:#311944"/>
				<stop  offset="1" style="stop-color:#A03976"/>
			</linearGradient>
			<path style="fill:url(#SVGID_00000021800183797700724120000011489910770516654499_);" d="M2693.856,3110.017l29.403,45.832
				c0,0-13.551,13.372-36.575,8.393l-32.344-43.42L2693.856,3110.017z"/>
			
				<linearGradient id="SVGID_00000085958529366744939130000000695228198004784537_" gradientUnits="userSpaceOnUse" x1="952.5516" y1="2477.3149" x2="1363.0156" y2="2477.3149" gradientTransform="matrix(-1 0 0 1 3886.2832 0)">
				<stop  offset="0" style="stop-color:#444B8C"/>
				<stop  offset="0.9964" style="stop-color:#3E4177"/>
			</linearGradient>
			<path style="opacity:0.3;fill:url(#SVGID_00000085958529366744939130000000695228198004784537_);" d="M2547.17,2388.106
				c-45.44-87.349-22.048-220.339,36.103-248.738c15.248-7.446,33.446-7.862,53.326-2.883c-10.469,30.23-8.393,52.088-3.227,67.568
				c23.039,69.05,122.646,61.194,153.766,139.788c19.673,49.682-11.611,74.337,16.308,114.159
				c28.934,41.271,76.248,34.351,90.862,74.553c10.889,29.954-10.584,46.988-2.329,72.223c2.3,7.033,6.833,14.093,14.454,20.798
				c-51.175,92.037-170.259,166.772-321.987,195.872c-5.435-19.416-10.872-38.831-16.309-58.245
				c21.115-21.989,52.688-53.737,93.041-90.111c61.985-55.874,74.722-59.599,77.694-77.239
				C2748.61,2538.07,2600.022,2489.699,2547.17,2388.106z"/>
			
				<linearGradient id="SVGID_00000124872624264596966760000015316729189667758485_" gradientUnits="userSpaceOnUse" x1="1180.0048" y1="2653.5874" x2="1530.974" y2="2653.5874" gradientTransform="matrix(-1 0 0 1 3886.2832 0)">
				<stop  offset="0" style="stop-color:#444B8C"/>
				<stop  offset="0.9964" style="stop-color:#3E4177"/>
			</linearGradient>
			<path style="fill:url(#SVGID_00000124872624264596966760000015316729189667758485_);" d="M2634.925,2166.776
				c-3.275,132.376-1.438,275.508,8.149,427.882c12.24,194.563,35.173,373.269,63.204,533.856
				c-12.452,3.962-24.904,7.923-37.356,11.885c-128.074-124.786-166.399-234.557-176.891-313.517
				c-7.416-55.816,3.808-60.614-6.202-130.471c-19.062-133.033-68.79-178.594-103.711-303.135
				c-13.106-46.745-27.698-117.361-26.767-209.414C2448.543,2178.167,2541.735,2172.471,2634.925,2166.776z"/>
			
				<linearGradient id="SVGID_00000023994650743992426870000003253096535836224421_" gradientUnits="userSpaceOnUse" x1="1406.2893" y1="1473.1149" x2="1151.5656" y2="2380.1802" gradientTransform="matrix(-1 0 0 1 3886.2832 0)">
				<stop  offset="0" style="stop-color:#AA80F9"/>
				<stop  offset="0.9964" style="stop-color:#6165D7"/>
			</linearGradient>
			<path style="fill:url(#SVGID_00000023994650743992426870000003253096535836224421_);" d="M2726.669,1929.664
				c-2.325,0.533-12.421,3.891-16.414,46.07c-9.627,101.702,43.326,142.878,30.287,198.032
				c-12.515,52.94-76.344,78.624-142.042,105.062c-43.905,17.668-179.698,72.31-258.67,10.866
				c-33.236-25.86-36.873-57.081-60.584-171.843c-60.244-291.583-83.582-316.634-58.244-379.755
				c43.511-108.397,160.01-153.287,179.393-160.755c206.679-79.638,450.747,66.729,547.192,234.883
				c12.699,22.141,88.541,154.374,35.255,217.095c-32.238,37.944-106.319,44.07-155.209,18.195
				C2762.311,2012.943,2748.432,1924.674,2726.669,1929.664z"/>
			
				<linearGradient id="SVGID_00000009550547172213350420000012826468424875068822_" gradientUnits="userSpaceOnUse" x1="997.6569" y1="1917.2372" x2="1041.9229" y2="2060.9072" gradientTransform="matrix(-1 0 0 1 3886.2832 0)">
				<stop  offset="0" style="stop-color:#AA80F9"/>
				<stop  offset="0.9964" style="stop-color:#6165D7"/>
			</linearGradient>
			<path style="fill:url(#SVGID_00000009550547172213350420000012826468424875068822_);" d="M2952.558,2006.795
				c0.646,0,1.301-0.137,1.929-0.423c2.339-1.065,3.371-3.827,2.308-6.171c-1.771-3.878-44.435-95.439-143.023-131.57
				c-2.421-0.896-5.092,0.35-5.974,2.772c-0.887,2.415,0.355,5.091,2.772,5.974c94.829,34.756,137.324,125.777,137.743,126.691
				C2949.094,2005.785,2950.786,2006.795,2952.558,2006.795z"/>
			
				<linearGradient id="SVGID_00000039844912422781944700000005004624196816850564_" gradientUnits="userSpaceOnUse" x1="1551.8694" y1="1513.9961" x2="1297.1453" y2="2421.0627" gradientTransform="matrix(-1 0 0 1 3886.2832 0)">
				<stop  offset="0" style="stop-color:#AA80F9"/>
				<stop  offset="0.9964" style="stop-color:#6165D7"/>
			</linearGradient>
			<path style="fill:url(#SVGID_00000039844912422781944700000005004624196816850564_);" d="M2356.128,1700.819
				c13.044,35.511-26.096,66.283-9.319,104.84c24.045,55.258,119.602,26.897,153.766,81.543
				c40.49,64.765-52.23,170.993-13.979,207.351c17.432,16.568,37.571-4.652,88.531,6.99c72.577,16.578,94.384,73.93,128.138,65.233
				c10.617-2.735,23.486-12.372,34.314-42.042c4.72,16.462,6.967,32.09,2.963,49.032c-12.515,52.94-76.344,78.624-142.043,105.062
				c-43.905,17.668-179.697,72.31-258.669,10.866c-33.236-25.86-36.873-57.081-60.584-171.843
				c-60.244-291.583-83.582-316.634-58.244-379.755c13.816-34.418,34.996-62.412,58.083-84.861
				C2328.86,1664.23,2349.3,1682.229,2356.128,1700.819z"/>
			
				<linearGradient id="SVGID_00000063600779665962901690000013502737118717488266_" gradientUnits="userSpaceOnUse" x1="1715.3169" y1="1559.8966" x2="1460.5938" y2="2466.9595" gradientTransform="matrix(-1 0 0 1 3886.2832 0)">
				<stop  offset="0" style="stop-color:#AA80F9"/>
				<stop  offset="0.9964" style="stop-color:#6165D7"/>
			</linearGradient>
			<path style="fill:url(#SVGID_00000063600779665962901690000013502737118717488266_);" d="M2481.066,1923.6
				c-5.577,5.071-62.119,54.874-130.134,37.868c-59.235-14.812-95.602-72.402-101.974-120.861
				c-15.151-115.248,134.999-211.985,116.489-235.308c-11.021-13.89-70.139,13.012-109.499,37.277
				c-40.859,25.186-151.27,93.247-174.801,226.808c-2.001,11.352-27.964,170.586,62.939,236.351
				c84.048,60.806,248.682,27.73,360.181-116.1C2496.534,1967.623,2488.8,1945.612,2481.066,1923.6z"/>
			<path style="fill:#D8DEE8;" d="M2845.617,1818.329l-67.322,215.05c-2.208,7.052-8.624,11.943-16.007,12.204l-362.282,12.797
				c-11.354,0.402-20.046-9.998-17.637-21.099l46.845-215.931c1.694-7.813,8.49-13.469,16.48-13.717l382.759-11.917
				C2840.429,1795.344,2849.197,1806.894,2845.617,1818.329z"/>
			
				<linearGradient id="SVGID_00000020361531639770475180000016709425042194237320_" gradientUnits="userSpaceOnUse" x1="1224.6331" y1="1833.4753" x2="1378.3987" y2="2110.7195" gradientTransform="matrix(-1 0 0 1 3886.2832 0)">
				<stop  offset="0.494" style="stop-color:#EBEFF2"/>
				<stop  offset="1" style="stop-color:#FFFFFF"/>
			</linearGradient>
			<path style="fill:url(#SVGID_00000020361531639770475180000016709425042194237320_);" d="M2842.388,1825.4l-65.34,208.716
				c-2.141,6.844-8.368,11.591-15.534,11.844l-351.612,12.421c-11.018,0.39-19.455-9.704-17.116-20.478l45.465-209.57
				c1.645-7.582,8.24-13.072,15.994-13.313l371.484-11.566C2837.353,1803.092,2845.863,1814.302,2842.388,1825.4z"/>
			
				<linearGradient id="SVGID_00000054268029085266260910000011187055500284604300_" gradientUnits="userSpaceOnUse" x1="1469.0524" y1="2128.3313" x2="1290.4358" y2="1936.5128" gradientTransform="matrix(-1 0 0 1 3886.2832 0)">
				<stop  offset="0.494" style="stop-color:#EBEFF2"/>
				<stop  offset="1" style="stop-color:#FFFFFF"/>
			</linearGradient>
			<path style="fill:url(#SVGID_00000054268029085266260910000011187055500284604300_);" d="M2392.785,2037.902l43.398-200.037
				c7.363,17.413,16.862,26.209,25.949,30.698c26.167,12.925,46.539-10.365,103.676-8.154c21.849,0.846,66.523,2.574,94.356,31.452
				c26.16,27.143,15.038,55.025,31.452,93.192c8.286,19.268,23.663,41.108,53.293,61.492l-335.008,11.834
				C2398.884,2058.769,2390.447,2048.676,2392.785,2037.902z"/>
			
				<linearGradient id="SVGID_00000126298452672419258880000000350388246928928438_" gradientUnits="userSpaceOnUse" x1="1328.2946" y1="1390.5656" x2="1298.7839" y2="1642.183" gradientTransform="matrix(-1 0 0 1 3886.2832 0)">
				<stop  offset="0" style="stop-color:#311944"/>
				<stop  offset="1" style="stop-color:#A03976"/>
			</linearGradient>
			<path style="fill:url(#SVGID_00000126298452672419258880000000350388246928928438_);" d="M2613.442,1556.62
				c-3.852,13.517,4.28,27.564,17.943,30.861c16.551,3.994,36.711,9.515,45.417,14.497c15.98,9.145-48.677-1.419-108.15-2.814
				c-37.128-0.871-64.873-5.038-80.48-8.047c-4.19-0.808-4.514-6.656-0.458-7.975c14.862-4.835,39.024-11.954,59.443-14.52
				c25.28-3.179,52.39-58.964,52.39-58.964l21.666,19.681L2613.442,1556.62z"/>
			
				<linearGradient id="SVGID_00000140695391852263196870000011569352013161816218_" gradientUnits="userSpaceOnUse" x1="1053.9105" y1="1892.8328" x2="1124.9227" y2="1892.8328" gradientTransform="matrix(-1 0 0 1 3886.2832 0)">
				<stop  offset="0" style="stop-color:#311944"/>
				<stop  offset="1" style="stop-color:#A03976"/>
			</linearGradient>
			<path style="fill:url(#SVGID_00000140695391852263196870000011569352013161816218_);" d="M2828.637,1886.866l-4.111-6.723
				c-3.636-13.963-17.05-23.075-31.371-21.309l-21.602,2.664c-6.759,0.833-11.334,7.264-9.943,13.932
				c2.01,9.642,7.182,21.177,20.455,20.281c22.546-1.521,36.959,31.337,36.959,31.337l8.653-12.188
				C2833.569,1906.562,2833.947,1895.549,2828.637,1886.866z"/>
			
				<linearGradient id="SVGID_00000111870029533074019000000007520554158454587032_" gradientUnits="userSpaceOnUse" x1="391.7734" y1="1786.0967" x2="322.6689" y2="1610.5836" gradientTransform="matrix(-0.8789 -0.477 -0.477 0.8789 3720.2051 210.4266)">
				<stop  offset="0" style="stop-color:#311944"/>
				<stop  offset="1" style="stop-color:#6B3976"/>
			</linearGradient>
			<path style="fill:url(#SVGID_00000111870029533074019000000007520554158454587032_);" d="M2661.728,1528.03
				c18.685-2.769,39.615-18.476,39.208-31.455c-0.559-17.838-41.336-27.607-61.926-32.54c-20.653-4.947-29.412-3.157-35.323,1.344
				c-6.04,4.598-10.008,12.829-11.306,19.927c-0.708,3.868-0.745,9.191-0.083,19.797c0.589,9.413,0.416,9,0.66,11.78
				c0.587,6.679,2.409,18.425,8.919,34.708c2.712-2.972,6.303-6.525,10.836-10.025c1.744-1.347,8.646-6.562,16.493-9.722
				C2642.674,1526.421,2650.385,1529.71,2661.728,1528.03z"/>
			
				<linearGradient id="SVGID_00000180334998856205086550000014264432672652215980_" gradientUnits="userSpaceOnUse" x1="1301.6167" y1="1424.5743" x2="1273.6591" y2="1494.4683" gradientTransform="matrix(-1 0 0 1 3886.2832 0)">
				<stop  offset="0" style="stop-color:#311944"/>
				<stop  offset="1" style="stop-color:#A03976"/>
			</linearGradient>
			<path style="fill:url(#SVGID_00000180334998856205086550000014264432672652215980_);" d="M2591.935,1533.444
				c0,0,1.211,26.029,25.737,37.457c21.962,10.231,51.107-35.62,43.089-53.129c-2.675-5.84-10.959-12.193-19.446-14.161
				c-5.013-1.162-7.473-0.162-15.628-2.219c-7.52-1.899-8.982-3.648-11.886-3.063c-3.633,0.73-8.264,4.865-11.725,21.04
				c-1.801-6.312-5.798-10.544-10.126-10.803c-0.691-0.041-2.69,0.151-4.331,1.204
				C2581.68,1513.578,2582.841,1523.231,2591.935,1533.444z"/>
		</g>
	</g>
</g>
</svg>
